<svg xml:space="preserve" xmlns="http://www.w3.org/2000/svg" viewBox="18.887587034813926 0.6399897600000001 358.22328931572633 313.92" style="max-height: 500px" width="358.22328931572633" height="313.92"><g><rect transform="translate(400 240)" height="480" width="800" ry="0" rx="0" y="-240" x="-400" style="stroke:none;stroke-width:3;stroke-dasharray:none;stroke-linecap:butt;stroke-dashoffset:0;stroke-linejoin:miter;stroke-miterlimit:4;fill:#0b45a1;fill-rule:evenodd;opacity:1"/><path d="M800 480 0 0v74.188L679.563 480H800z" style="stroke:none;stroke-width:1;stroke-dasharray:none;stroke-linecap:butt;stroke-dashoffset:0;stroke-linejoin:miter;stroke-miterlimit:4;fill:silver;fill-rule:evenodd;opacity:1"/><path d="M577.102 316.73a217.105 217.105 0 1 1-434.21 0 217.105 217.105 0 1 1 434.21 0z" transform="matrix(.51 0 0 .51 15.37 -1.312)" style="stroke:none;stroke-width:1.5;stroke-dasharray:none;stroke-linecap:round;stroke-dashoffset:0;stroke-linejoin:round;stroke-miterlimit:4;fill:silver;fill-rule:evenodd;opacity:1"/><path d="m206.828 170.287 69.38 1.43-6.438 30.04-27.18 31.471-32.543 6.08-6.437-43.988 3.218-25.033z" style="stroke:none;stroke-width:1;stroke-dasharray:none;stroke-linecap:butt;stroke-dashoffset:0;stroke-linejoin:miter;stroke-miterlimit:4;fill:#f5dc0f;fill-rule:evenodd;opacity:1"/><path d="M122.072 166.353H274.63l-2.633-23.477-16.174-33.743-27.895-18.596-30.04-9.299-38.266 10.371-22.888 23.246-11.444 20.384-3.218 31.114z" style="stroke:#000;stroke-width:.50566542;stroke-dasharray:none;stroke-linecap:butt;stroke-dashoffset:0;stroke-linejoin:miter;stroke-miterlimit:4;fill:#1663cf;fill-rule:evenodd;opacity:1"/><path d="M181.191 114.524h80.622v1.448H180.81l.38-1.448z" style="stroke:none;stroke-width:1.5;stroke-dasharray:none;stroke-linecap:round;stroke-dashoffset:0;stroke-linejoin:round;stroke-miterlimit:4;fill:#000;fill-rule:evenodd;opacity:1"/><path d="M817.84 75.132c0-41.536 33.671-75.207 75.207-75.207 41.536 0 75.208 33.671 75.208 75.207h-75.208z" transform="matrix(.49 0 0 .51 -218.014 120.95)" style="stroke:#000;stroke-width:1.525316;stroke-dasharray:none;stroke-linecap:round;stroke-dashoffset:0;stroke-linejoin:round;stroke-miterlimit:4;fill:#f5dc0f;fill-rule:evenodd;opacity:1"/><rect transform="matrix(.49 0 0 .51 219.58 127.08)" height="23.754" width="4.501" ry="0" rx="0" y="-11.877" x="-2.25" style="stroke:none;stroke-width:10;stroke-dasharray:none;stroke-linecap:round;stroke-dashoffset:0;stroke-linejoin:round;stroke-miterlimit:4;fill:#c70f2e;fill-rule:evenodd;opacity:1"/><path d="M893.047-.075v23.754" transform="matrix(.49 0 0 .51 -218.014 121.062)" style="stroke:#000;stroke-width:1.525316;stroke-dasharray:none;stroke-linecap:butt;stroke-dashoffset:0;stroke-linejoin:miter;stroke-miterlimit:4;fill:none;fill-rule:evenodd;opacity:1"/><path d="m901.793.31-4.645 39.736" transform="matrix(.49 0 0 .51 -218.02 121.018)" style="stroke:#000;stroke-width:1.525316;stroke-dasharray:none;stroke-linecap:butt;stroke-dashoffset:0;stroke-linejoin:miter;stroke-miterlimit:4;fill:none;fill-rule:evenodd;opacity:1"/><rect transform="matrix(.48 .12 -.11 .49 226.72 127.94)" height="23.754" width="4.501" ry="0" rx="0" y="-11.877" x="-2.25" style="stroke:none;stroke-width:10;stroke-dasharray:none;stroke-linecap:round;stroke-dashoffset:0;stroke-linejoin:round;stroke-miterlimit:4;fill:#c70f2e;fill-rule:evenodd;opacity:1"/><path d="m910.39 1.952-5.477 23.114" transform="matrix(.49 0 0 .51 -218.028 121.05)" style="stroke:#000;stroke-width:1.525316;stroke-dasharray:none;stroke-linecap:butt;stroke-dashoffset:0;stroke-linejoin:miter;stroke-miterlimit:4;fill:none;fill-rule:evenodd;opacity:1"/><path d="M918.812 4.343 905.13 41.937" transform="matrix(.49 0 0 .51 -218.035 121.009)" style="stroke:#000;stroke-width:1.525316;stroke-dasharray:none;stroke-linecap:butt;stroke-dashoffset:0;stroke-linejoin:miter;stroke-miterlimit:4;fill:none;fill-rule:evenodd;opacity:1"/><rect transform="matrix(.44 .23 -.22 .45 233.48 130.48)" height="23.754" width="4.501" ry="0" rx="0" y="-11.877" x="-2.25" style="stroke:none;stroke-width:10;stroke-dasharray:none;stroke-linecap:round;stroke-dashoffset:0;stroke-linejoin:round;stroke-miterlimit:4;fill:#c70f2e;fill-rule:evenodd;opacity:1"/><path d="m926.8 7.924-10.661 21.228" transform="matrix(.49 0 0 .51 -218.04 121.025)" style="stroke:#000;stroke-width:1.52531612;stroke-dasharray:none;stroke-linecap:butt;stroke-dashoffset:0;stroke-linejoin:miter;stroke-miterlimit:4;fill:none;fill-rule:evenodd;opacity:1"/><path d="m934.443 12.193-21.985 33.425" transform="matrix(.49 0 0 .51 -218.05 120.986)" style="stroke:#000;stroke-width:1.52531612;stroke-dasharray:none;stroke-linecap:butt;stroke-dashoffset:0;stroke-linejoin:miter;stroke-miterlimit:4;fill:none;fill-rule:evenodd;opacity:1"/><rect transform="matrix(.37 .33 -.31 .39 239.48 134.57)" height="23.754" width="4.501" ry="0" rx="0" y="-11.877" x="-2.25" style="stroke:none;stroke-width:10;stroke-dasharray:none;stroke-linecap:round;stroke-dashoffset:0;stroke-linejoin:round;stroke-miterlimit:4;fill:#c70f2e;fill-rule:evenodd;opacity:1"/><path d="M941.388 17.52 926.12 35.715" transform="matrix(.49 0 0 .51 -218.057 120.994)" style="stroke:#000;stroke-width:1.52531612;stroke-dasharray:none;stroke-linecap:butt;stroke-dashoffset:0;stroke-linejoin:miter;stroke-miterlimit:4;fill:none;fill-rule:evenodd;opacity:1"/><path d="m947.841 23.436-29.1 27.454" transform="matrix(.49 0 0 .51 -218.052 120.948)" style="stroke:#000;stroke-width:1.52531612;stroke-dasharray:none;stroke-linecap:butt;stroke-dashoffset:0;stroke-linejoin:miter;stroke-miterlimit:4;fill:none;fill-rule:evenodd;opacity:1"/><rect transform="matrix(.29 .41 -.39 .3 244.42 139.98)" height="23.754" width="4.501" ry="0" rx="0" y="-11.877" x="-2.25" style="stroke:none;stroke-width:10;stroke-dasharray:none;stroke-linecap:round;stroke-dashoffset:0;stroke-linejoin:round;stroke-miterlimit:4;fill:#c70f2e;fill-rule:evenodd;opacity:1"/><path d="m953.372 30.22-19.054 14.186" transform="matrix(.49 0 0 .51 -218.062 120.952)" style="stroke:#000;stroke-width:1.52531612;stroke-dasharray:none;stroke-linecap:butt;stroke-dashoffset:0;stroke-linejoin:miter;stroke-miterlimit:4;fill:none;fill-rule:evenodd;opacity:1"/><path d="M958.286 37.465 923.64 57.47" transform="matrix(.49 0 0 .51 -218.06 120.9)" style="stroke:#000;stroke-width:1.52531612;stroke-dasharray:none;stroke-linecap:butt;stroke-dashoffset:0;stroke-linejoin:miter;stroke-miterlimit:4;fill:none;fill-rule:evenodd;opacity:1"/><rect transform="matrix(.19 .46 -.45 .2 248.01 146.42)" height="23.754" width="4.501" ry="0" rx="0" y="-11.877" x="-2.25" style="stroke:none;stroke-width:10;stroke-dasharray:none;stroke-linecap:round;stroke-dashoffset:0;stroke-linejoin:round;stroke-miterlimit:4;fill:#c70f2e;fill-rule:evenodd;opacity:1"/><path d="m962.103 45.342-21.811 9.41" transform="matrix(.49 0 0 .51 -218.078 120.895)" style="stroke:#000;stroke-width:1.52531612;stroke-dasharray:none;stroke-linecap:butt;stroke-dashoffset:0;stroke-linejoin:miter;stroke-miterlimit:4;fill:none;fill-rule:evenodd;opacity:1"/><path d="M965.214 53.525 926.888 65" transform="matrix(.49 0 0 .51 -218.064 120.857)" style="stroke:#000;stroke-width:1.52531612;stroke-dasharray:none;stroke-linecap:butt;stroke-dashoffset:0;stroke-linejoin:miter;stroke-miterlimit:4;fill:none;fill-rule:evenodd;opacity:1"/><rect transform="matrix(.08 .5 -.48 .09 250.08 153.54)" height="23.754" width="4.501" ry="0" rx="0" y="-11.877" x="-2.25" style="stroke:none;stroke-width:10;stroke-dasharray:none;stroke-linecap:round;stroke-dashoffset:0;stroke-linejoin:round;stroke-miterlimit:4;fill:#c70f2e;fill-rule:evenodd;opacity:1"/><path d="m967.112 62.07-23.394 4.126" transform="matrix(.49 0 0 .51 -218.07 120.834)" style="stroke:#000;stroke-width:1.52531612;stroke-dasharray:none;stroke-linecap:butt;stroke-dashoffset:0;stroke-linejoin:miter;stroke-miterlimit:4;fill:none;fill-rule:evenodd;opacity:1"/><path d="m968.252 70.75-39.94 2.328" transform="matrix(.49 0 0 .51 -218.067 120.796)" style="stroke:#000;stroke-width:1.52531612;stroke-dasharray:none;stroke-linecap:butt;stroke-dashoffset:0;stroke-linejoin:miter;stroke-miterlimit:4;fill:none;fill-rule:evenodd;opacity:1"/><rect transform="matrix(.48 -.12 .11 .49 212.43 127.94)" height="23.754" width="4.501" ry="0" rx="0" y="-11.877" x="-2.25" style="stroke:none;stroke-width:10;stroke-dasharray:none;stroke-linecap:round;stroke-dashoffset:0;stroke-linejoin:round;stroke-miterlimit:4;fill:#c70f2e;fill-rule:evenodd;opacity:1"/><path d="m875.703 1.952 5.478 23.114" transform="matrix(.49 0 0 .51 -218.006 121.05)" style="stroke:#000;stroke-width:1.525316;stroke-dasharray:none;stroke-linecap:butt;stroke-dashoffset:0;stroke-linejoin:miter;stroke-miterlimit:4;fill:none;fill-rule:evenodd;opacity:1"/><path d="m884.302.31 4.644 39.736" transform="matrix(.49 0 0 .51 -218.004 121.018)" style="stroke:#000;stroke-width:1.525316;stroke-dasharray:none;stroke-linecap:butt;stroke-dashoffset:0;stroke-linejoin:miter;stroke-miterlimit:4;fill:none;fill-rule:evenodd;opacity:1"/><rect transform="matrix(.44 -.23 .22 .45 205.68 130.48)" height="23.754" width="4.501" ry="0" rx="0" y="-11.877" x="-2.25" style="stroke:none;stroke-width:10;stroke-dasharray:none;stroke-linecap:round;stroke-dashoffset:0;stroke-linejoin:round;stroke-miterlimit:4;fill:#c70f2e;fill-rule:evenodd;opacity:1"/><path d="m859.295 7.924 10.66 21.228" transform="matrix(.49 0 0 .51 -217.989 121.025)" style="stroke:#000;stroke-width:1.52531612;stroke-dasharray:none;stroke-linecap:butt;stroke-dashoffset:0;stroke-linejoin:miter;stroke-miterlimit:4;fill:none;fill-rule:evenodd;opacity:1"/><path d="m867.283 4.342 13.683 37.595" transform="matrix(.49 0 0 .51 -217.999 121.009)" style="stroke:#000;stroke-width:1.52531612;stroke-dasharray:none;stroke-linecap:butt;stroke-dashoffset:0;stroke-linejoin:miter;stroke-miterlimit:4;fill:none;fill-rule:evenodd;opacity:1"/><rect transform="matrix(.37 -.33 .31 .39 199.67 134.57)" height="23.754" width="4.501" ry="0" rx="0" y="-11.877" x="-2.25" style="stroke:none;stroke-width:10;stroke-dasharray:none;stroke-linecap:round;stroke-dashoffset:0;stroke-linejoin:round;stroke-miterlimit:4;fill:#c70f2e;fill-rule:evenodd;opacity:1"/><path d="m844.706 17.52 15.268 18.196" transform="matrix(.49 0 0 .51 -217.977 120.994)" style="stroke:#000;stroke-width:1.52531612;stroke-dasharray:none;stroke-linecap:butt;stroke-dashoffset:0;stroke-linejoin:miter;stroke-miterlimit:4;fill:none;fill-rule:evenodd;opacity:1"/><path d="m851.653 12.192 21.983 33.426" transform="matrix(.49 0 0 .51 -217.984 120.991)" style="stroke:#000;stroke-width:1.52531612;stroke-dasharray:none;stroke-linecap:butt;stroke-dashoffset:0;stroke-linejoin:miter;stroke-miterlimit:4;fill:none;fill-rule:evenodd;opacity:1"/><rect transform="matrix(.29 -.41 .39 .3 194.74 139.98)" height="23.754" width="4.501" ry="0" rx="0" y="-11.877" x="-2.25" style="stroke:none;stroke-width:10;stroke-dasharray:none;stroke-linecap:round;stroke-dashoffset:0;stroke-linejoin:round;stroke-miterlimit:4;fill:#c70f2e;fill-rule:evenodd;opacity:1"/><path d="m832.722 30.22 19.054 14.186" transform="matrix(.49 0 0 .51 -217.962 120.952)" style="stroke:#000;stroke-width:1.52531612;stroke-dasharray:none;stroke-linecap:butt;stroke-dashoffset:0;stroke-linejoin:miter;stroke-miterlimit:4;fill:none;fill-rule:evenodd;opacity:1"/><path d="m838.254 23.434 29.099 27.456" transform="matrix(.49 0 0 .51 -217.972 120.948)" style="stroke:#000;stroke-width:1.52531612;stroke-dasharray:none;stroke-linecap:butt;stroke-dashoffset:0;stroke-linejoin:miter;stroke-miterlimit:4;fill:none;fill-rule:evenodd;opacity:1"/><rect transform="matrix(.19 -.46 .45 .2 191.14 146.42)" height="23.754" width="4.501" ry="0" rx="0" y="-11.877" x="-2.25" style="stroke:none;stroke-width:10;stroke-dasharray:none;stroke-linecap:round;stroke-dashoffset:0;stroke-linejoin:round;stroke-miterlimit:4;fill:#c70f2e;fill-rule:evenodd;opacity:1"/><path d="m823.991 45.342 21.811 9.41" transform="matrix(.49 0 0 .51 -217.961 120.895)" style="stroke:#000;stroke-width:1.52531612;stroke-dasharray:none;stroke-linecap:butt;stroke-dashoffset:0;stroke-linejoin:miter;stroke-miterlimit:4;fill:none;fill-rule:evenodd;opacity:1"/><path d="m827.808 37.464 34.647 20.005" transform="matrix(.49 0 0 .51 -217.964 120.9)" style="stroke:#000;stroke-width:1.52531612;stroke-dasharray:none;stroke-linecap:butt;stroke-dashoffset:0;stroke-linejoin:miter;stroke-miterlimit:4;fill:none;fill-rule:evenodd;opacity:1"/><rect transform="matrix(.08 -.5 .48 .09 189.08 153.54)" height="23.754" width="4.501" ry="0" rx="0" y="-11.877" x="-2.25" style="stroke:none;stroke-width:10;stroke-dasharray:none;stroke-linecap:round;stroke-dashoffset:0;stroke-linejoin:round;stroke-miterlimit:4;fill:#c70f2e;fill-rule:evenodd;opacity:1"/><path d="m818.983 62.07 23.393 4.126" transform="matrix(.49 0 0 .51 -217.953 120.834)" style="stroke:#000;stroke-width:1.52531612;stroke-dasharray:none;stroke-linecap:butt;stroke-dashoffset:0;stroke-linejoin:miter;stroke-miterlimit:4;fill:none;fill-rule:evenodd;opacity:1"/><path d="m820.88 53.524 38.326 11.475" transform="matrix(.49 0 0 .51 -217.96 120.857)" style="stroke:#000;stroke-width:1.52531612;stroke-dasharray:none;stroke-linecap:butt;stroke-dashoffset:0;stroke-linejoin:miter;stroke-miterlimit:4;fill:none;fill-rule:evenodd;opacity:1"/><path d="m817.842 70.749 39.94 2.328" transform="matrix(.49 0 0 .51 -217.957 120.796)" style="stroke:#000;stroke-width:1.52531612;stroke-dasharray:none;stroke-linecap:butt;stroke-dashoffset:0;stroke-linejoin:miter;stroke-miterlimit:4;fill:none;fill-rule:evenodd;opacity:1"/><path d="M817.84 75.132c0-41.536 33.671-75.207 75.207-75.207 41.536 0 75.208 33.671 75.208 75.207h-75.208z" transform="matrix(.49 0 0 .51 -218.014 120.95)" style="stroke:#000;stroke-width:1.525316;stroke-dasharray:none;stroke-linecap:round;stroke-dashoffset:0;stroke-linejoin:round;stroke-miterlimit:4;fill:none;fill-rule:evenodd;opacity:1"/><path d="M274.36 157.69c-1.832 1.973-4.621 1.378-8.092 1.39-9.228.032-12.991-5.079-26.552-4.931-11.305.123-20.05 4.311-28.955 7.333v13.403h60.059l3.54-17.196z" style="stroke:#000;stroke-width:.75849813;stroke-dasharray:none;stroke-linecap:butt;stroke-dashoffset:0;stroke-linejoin:miter;stroke-miterlimit:4;fill:#000;fill-rule:evenodd;opacity:1"/><path d="m150.312 201.47 15.198-2.041 18.544 11.001 38.165 21.72-15.425 13.554-42.192.68-26.993-28.808 12.703-16.106z" style="stroke:#000;stroke-width:.75849813;stroke-dasharray:none;stroke-linecap:butt;stroke-dashoffset:0;stroke-linejoin:miter;stroke-miterlimit:4;fill:#1663cf;fill-rule:evenodd;opacity:1"/><path d="m158.723 215.413 10.747 26.626" style="stroke:#000;stroke-width:.75849813;stroke-dasharray:none;stroke-linecap:butt;stroke-dashoffset:0;stroke-linejoin:miter;stroke-miterlimit:4;fill:none;fill-rule:evenodd;opacity:1"/><path d="m209.146 120.438-7.474 4.883v95.065l15.091 8.612v-99.521l-7.617-9.04z" style="stroke:#000;stroke-width:.75849813;stroke-dasharray:none;stroke-linecap:butt;stroke-dashoffset:0;stroke-linejoin:miter;stroke-miterlimit:4;fill:#fff;fill-rule:evenodd;opacity:1"/><path d="M180.747 149.874c-4.897.116-9.723-.494-14.354-.91v-4.65l-4.17-.589-1.205 2.246v2.138c-6.205-.977-12.132-2.772-17.91-4.887V138.7l-4.064-1.711-2.887 1.871v1.123c-3.616-1.78-6.484-3.694-9.143-5.774l-5.85 11.941-.276 34.194 23.439 36.95 14.634 6.242v-16.959l-.709-1.002 8.41-1.103 11.67 9.394 8.814-1.803 2.028-46.758-8.427-15.431z" style="stroke:#000;stroke-width:.75849813;stroke-dasharray:none;stroke-linecap:round;stroke-dashoffset:0;stroke-linejoin:round;stroke-miterlimit:4;fill:#fff;fill-rule:evenodd;opacity:1"/><path d="m186.273 202.36-13.623-5.24-5.386.682 11.859 5.814v6.563l-.781.095v2.94M167.502 202.317l11.58 7.85" style="stroke:#000;stroke-width:.75849813;stroke-dasharray:none;stroke-linecap:round;stroke-dashoffset:0;stroke-linejoin:round;stroke-miterlimit:4;fill:none;fill-rule:evenodd;opacity:1"/><path d="M177.66 199.047v-58.223l3.327-2.157 6.082 3.405v60.596l-9.408-3.62z" style="stroke:#000;stroke-width:.75849813;stroke-dasharray:none;stroke-linecap:butt;stroke-dashoffset:0;stroke-linejoin:miter;stroke-miterlimit:4;fill:#fff;fill-rule:evenodd;opacity:1"/><path d="m158.935 206.572-13.316 1.951m42.171-6.232-8.901 1.309" style="stroke:#000;stroke-width:.75849813;stroke-dasharray:none;stroke-linecap:round;stroke-dashoffset:0;stroke-linejoin:round;stroke-miterlimit:4;fill:none;fill-rule:evenodd;opacity:1"/><path d="m194.23 85.958-7.902 9.228v116.525l17.161 9.734V99.185l-9.26-13.227z" style="stroke:#000;stroke-width:.75800002;stroke-dasharray:none;stroke-linecap:butt;stroke-dashoffset:0;stroke-linejoin:miter;stroke-miterlimit:4;fill:#fff;fill-rule:evenodd;opacity:1"/><path d="M194.246 86.642v129.546M195.981 93.22v123.843m1.45-121.856v122.678m1.449-120.692V218.77m1.449-119.59v120.38m1.45-118.439v119.26M209.119 120.593v104.002M211.51 128.333v97.695m1.503-96.136v96.926m1.504-95.21v96" style="stroke:#000;stroke-width:.75849813;stroke-dasharray:none;stroke-linecap:butt;stroke-dashoffset:0;stroke-linejoin:miter;stroke-miterlimit:4;fill:none;fill-rule:evenodd;opacity:1"/><path d="m148.688 198.564 23.913-2.42c-3.828-1.667-8.236-1.62-13.624-1.025-6.2.684-9.772 1.068-10.289 3.445z" style="stroke:#000;stroke-width:.75849813;stroke-dasharray:none;stroke-linecap:round;stroke-dashoffset:0;stroke-linejoin:round;stroke-miterlimit:4;fill:none;fill-rule:evenodd;opacity:1"/><path d="M180.987 200.18v-61.435M182.843 142.524v58.356m1.758-57.434v58.104" style="stroke:#000;stroke-width:.75849813;stroke-dasharray:none;stroke-linecap:butt;stroke-dashoffset:0;stroke-linejoin:miter;stroke-miterlimit:4;fill:none;fill-rule:evenodd;opacity:1"/><path d="m158.164 205.46-4.354-6.311-5.46.585M139.042 137.003v11.625c-.888-1.851-1.188-6-1.257-7.682l-1.646-.897M143.105 138.714v10.57M166.388 144.306v10.164M162.272 143.798v10.22c-.297-1.9-.398-3.975-.457-5.754l-.8-.15M167.337 197.875l-.024 4.576-.659.122v1.81M172.626 196.13v.93M152.628 146.278c-.06 14.163 1.663 31.222 6.511 48.495M160.018 147.943c-.13 14.804.905 31.292 2.577 46.603M144.56 143.627c.361 16.193 5.062 33.574 11.019 51.41M168.11 149.046c-.797 13.075-1.36 28.604-2.205 45.326M174.384 149.735c-.846 14.845-2.228 30.24-5.274 45.085M135.503 139.67c.18 18.557 7.66 37.586 16.82 56.012" style="stroke:#000;stroke-width:.75849813;stroke-dasharray:none;stroke-linecap:round;stroke-dashoffset:0;stroke-linejoin:round;stroke-miterlimit:4;fill:none;fill-rule:evenodd;opacity:1"/><path d="M149.6 196.958c-13.944-20.092-22.061-39.762-19.888-60.872M176.136 185.615a71.363 71.363 0 0 1-3.949 10.042" style="stroke:#000;stroke-width:.75849813;stroke-dasharray:none;stroke-linecap:round;stroke-dashoffset:0;stroke-linejoin:round;stroke-miterlimit:4;fill:none;fill-rule:evenodd;opacity:1"/><path d="M309.107 368.434v-20.447l31.34-4.107v25.714l-31.34-1.16z" transform="matrix(.51 0 0 .51 15.522 -1.487)" style="stroke:#000;stroke-width:1.5;stroke-dasharray:none;stroke-linecap:butt;stroke-dashoffset:0;stroke-linejoin:miter;stroke-miterlimit:4;fill:#f5dc0f;fill-rule:evenodd;opacity:1"/><path d="M366.25 399.684V367.54l43.036.714v40l-43.036-8.571z" transform="matrix(.51 0 0 .51 15.247 -1.629)" style="stroke:#000;stroke-width:1.5;stroke-dasharray:none;stroke-linecap:butt;stroke-dashoffset:0;stroke-linejoin:miter;stroke-miterlimit:4;fill:#f5dc0f;fill-rule:evenodd;opacity:1"/><path d="M325.017 357.503v24.623l48.36 6.566v-33.209l-48.36 2.02z" transform="matrix(.51 0 0 .51 15.418 -1.556)" style="stroke:#000;stroke-width:1.5;stroke-dasharray:none;stroke-linecap:butt;stroke-dashoffset:0;stroke-linejoin:miter;stroke-miterlimit:4;fill:#f5dc0f;fill-rule:evenodd;opacity:1"/><path d="M591.423 940.266c-1.14-1.71-1.04-5.894 1.768-7.426-3.137-1.845-2.119-4.25-1.237-6.542-2.941-.914-5.15-2.234-3.89-5.481-2.296.454-4.694 1.527-6.542-.707-2.534 2.127-5.068 2.409-7.603 1.237.187 2.384-1.987 3.194-4.597 3.713.004 2.24 1.033 4.48-1.591 6.719 1.393 2.18 1.847 4.361.884 6.542 2.62-.194 3.19 2.053 3.536 4.597 1.745-.346 5.325.087 5.835 3.536 2.252-1.795 5.988-1.78 7.78-.354-.526-3.499 2.972-4.628 5.657-5.834z" transform="matrix(.51 0 0 .51 -44.275 -292.813)" style="stroke:#000;stroke-width:1.5;stroke-dasharray:none;stroke-linecap:round;stroke-dashoffset:0;stroke-linejoin:round;stroke-miterlimit:4;fill:#008d38;fill-rule:evenodd;opacity:1"/><path d="M564.469 906c-.519 4.277-2.568 11-5.344 15.938-1.388 2.468-2.965 4.503-4.344 5.625-1.378 1.12-2.225 1.32-3.125 1.156-6.472-1.186-8.948-4.04-10.625-7.782-1.677-3.74-2.015-8.47-2.375-12.343l-7.968.75c.331 3.57.543 9.295 3.03 14.843 2.15 4.795 6.422 9.377 13.157 11.563-.425 10.38-.535 20.713-.5 31.281-5.105-3.558-7.98-8.455-10.281-12.875L529 957.844c2.977 5.716 7.85 13.816 17.438 18.437.109 11.33.321 22.94.437 35.407l9-2.125c.032-15.156-.28-28.958-.688-42.313 11.032-4.378 19.637-12.338 25.032-24.281-1.81-3.567-4.554-4.265-7.282-4.157-4.217 9.337-10.066 15.883-18.03 19.844-.243-7.408-.479-14.765-.688-22.125 2.107-.432 4.032-1.454 5.625-2.75 2.56-2.083 4.54-4.864 6.25-7.906 3.42-6.084 5.63-13.282 6.312-18.906L564.47 906z" transform="matrix(.51 0 0 .51 -44.161 -292.928)" style="stroke:#000;stroke-width:1.5;stroke-dasharray:none;stroke-linecap:butt;stroke-dashoffset:0;stroke-linejoin:miter;stroke-miterlimit:4;fill:#008d38;fill-rule:evenodd;opacity:1"/><path d="M587.929 904.482c-1.975-1.066-3.88-5.137-1.77-8.029-4.063-.187-4.185-3.012-4.391-5.66-3.417.61-6.287.457-6.568-3.3-2.108 1.597-4.023 3.84-6.965 2.628-1.546 3.325-3.978 4.877-7.107 5.032 1.333 2.196-.48 4.073-2.875 5.891 1.077 2.15 3.194 3.782 1.61 7.26 2.457 1.391 3.962 3.257 4.033 5.839 2.561-1.511 4.215.36 5.786 2.629 1.601-1.214 5.434-2.608 7.605.448 1.42-2.863 5.211-4.737 7.71-4.272-2.21-3.097.79-5.95 2.932-8.466z" transform="matrix(.51 0 0 .51 -44.236 -292.684)" style="stroke:#000;stroke-width:1.5;stroke-dasharray:none;stroke-linecap:round;stroke-dashoffset:0;stroke-linejoin:round;stroke-miterlimit:4;fill:#008d38;fill-rule:evenodd;opacity:1"/><path d="M535.095 960.49c-.674-2.664 1.745-5.198 5.06-5.299-2.118-2.96 1.48-3.855 3.216-5.592-2.318-2.028-3.8-4.131-1.332-6.588-2.282-.516-4.91-.51-5.692-3.3-3.18.916-4.903 1.029-6.743-1.07-.797 2.254-3.112 2.112-5.709 1.528-.905 2.048-.873 4.513-4.18 5.495.388 2.558-.79 3.851-2.554 5.454 2.474.886 2.082 3.17 1.367 5.636 1.735.392 4.83 2.24 3.898 5.6 2.786-.727 5.602-.04 6.66 1.99.94-3.412 3.066-3.842 6.009-3.855z" transform="matrix(.51 0 0 .51 -44.058 -292.9)" style="stroke:#000;stroke-width:1.5;stroke-dasharray:none;stroke-linecap:round;stroke-dashoffset:0;stroke-linejoin:round;stroke-miterlimit:4;fill:#008d38;fill-rule:evenodd;opacity:1"/><path d="M545.23 898.523c-2.276-.43-5.46-4.045-4.339-7.821-4.032 1.222-5.07-1.705-6.131-4.416-3.143 1.834-5.998 2.676-7.494-1.174-1.541 2.414-2.684 5.442-5.955 5.195-.431 4.036-2.304 6.517-5.312 7.773 2.016 1.843.853 4.45-.897 7.198 1.752 1.884 4.351 2.86 3.933 7.07 2.853.604 4.931 2.039 5.84 4.728 2.012-2.483 4.237-1.094 6.51.743 1.172-1.836 4.466-4.64 7.581-2.186.458-3.506 3.556-6.8 6.15-7.185-3.168-2.483-1.16-6.532.115-9.925z" transform="matrix(.51 0 0 .51 -44.057 -292.68)" style="stroke:#000;stroke-width:1.5;stroke-dasharray:none;stroke-linecap:round;stroke-dashoffset:0;stroke-linejoin:round;stroke-miterlimit:4;fill:#008d38;fill-rule:evenodd;opacity:1"/><path d="m163.13 205.162 30.252 33.325M166.987 204.656l39.41 31.933M181.398 213.253l27.958 20.1M164.737 204.656l35.024 32.335M184.18 212.652l30.592 18.678M159.158 205.44l20.725 33.616M161.2 205.213l24.816 33.323M159.044 209.478l15.238 30.796" style="stroke:#000;stroke-width:.75849813;stroke-dasharray:none;stroke-linecap:butt;stroke-dashoffset:0;stroke-linejoin:miter;stroke-miterlimit:4;fill:none;fill-rule:evenodd;opacity:1"/><path d="m123.917 134.25 11.228 12.19 2.406 6.738 1.604 3.528-.642 5.775 2.085 3.529-.16 7.699 3.529 6.576.962 9.303 2.727 4.492 1.443 5.934 2.61 3.004.598 5.177 1.444 8.5-7.058 2.728-20.691-25.023-5.775-35.448 3.69-24.701z" style="stroke:#000;stroke-width:.75849813;stroke-dasharray:none;stroke-linecap:butt;stroke-dashoffset:0;stroke-linejoin:miter;stroke-miterlimit:4;fill:#c70f2e;fill-rule:evenodd;opacity:1"/><path d="m124.043 154.35 7.941-1.588 3.291 3.829 2.236 4.666-.641 5.775 2.085 3.529-.16 7.699 3.528 6.576.963 9.303 2.726 4.491 1.444 5.935 2.61 3.004.598 5.177 1.443 8.5-7.057 2.728-20.692-25.023-5.774-35.448 5.459-9.152z" style="stroke:none;stroke-width:1.5;stroke-dasharray:none;stroke-linecap:butt;stroke-dashoffset:0;stroke-linejoin:miter;stroke-miterlimit:4;fill:#a70c26;fill-rule:evenodd;opacity:1"/><path d="M137.279 181.901v-9.228l-3.207-6.768.162 5.473-1.633 1.295 3.009 3.554 1.669 5.674zM135.96 190.57l-.138-6.066-1.903-3.414-1.037 5.126.284 4.84 2.794-.486zM143.22 188.728l-3.16 12.389 1.011.379 4.425-6.7-2.276-6.068z" style="stroke:none;stroke-width:1;stroke-dasharray:none;stroke-linecap:butt;stroke-dashoffset:0;stroke-linejoin:miter;stroke-miterlimit:4;fill:#c70f2e;fill-rule:evenodd;opacity:1"/><path d="m142.715 199.094-1.517-8.343-2.276-5.057.632 5.183.506 9.228 2.655-1.011z" style="stroke:none;stroke-width:1;stroke-dasharray:none;stroke-linecap:butt;stroke-dashoffset:0;stroke-linejoin:miter;stroke-miterlimit:4;fill:#c70f2e;fill-rule:evenodd;opacity:1"/><path d="M198.97 55.729c-57.677 0-104.483 46.806-104.483 104.483 0 57.676 46.806 104.499 104.483 104.499 57.676 0 104.483-46.823 104.483-104.5 0-57.676-46.807-104.482-104.483-104.482zm-4.74 30.229 2.97 4.235c.59-.015 1.176-.016 1.77-.016 38.66 0 70.035 31.375 70.035 70.035s-31.375 70.034-70.035 70.034-70.035-31.374-70.035-70.034c0-35.667 26.708-65.133 61.202-69.482l4.092-4.772z" style="stroke:none;stroke-width:1.5;stroke-dasharray:none;stroke-linecap:round;stroke-dashoffset:0;stroke-linejoin:round;stroke-miterlimit:4;fill:#0b45a1;fill-rule:evenodd;opacity:1"/><path d="m178.955 111.864-2.4 2.365-12.512-1.146c-1.448-.132-4.322.067-4.72 1.027-.288.169-.811.33-1.02.593-.147.186-.143.89.621.89h19.654l1.395-3.73h-1.018z" style="stroke:#000;stroke-width:.75849813;stroke-dasharray:none;stroke-linecap:butt;stroke-dashoffset:0;stroke-linejoin:miter;stroke-miterlimit:4;fill:#000;fill-rule:evenodd;opacity:1"/><path d="M508.215 316.73a148.218 148.218 0 1 1-296.436 0 148.218 148.218 0 1 1 296.436 0z" transform="matrix(.51 0 0 .51 15.37 -1.312)" style="stroke:silver;stroke-width:3;stroke-dasharray:none;stroke-linecap:round;stroke-dashoffset:0;stroke-linejoin:round;stroke-miterlimit:4;fill:none;fill-rule:evenodd;opacity:1"/><path d="M556.85 316.73a196.852 196.852 0 1 1-393.705 0 196.852 196.852 0 1 1 393.704 0z" transform="matrix(.51 0 0 .51 15.37 -1.312)" style="stroke:silver;stroke-width:3;stroke-dasharray:none;stroke-linecap:round;stroke-dashoffset:0;stroke-linejoin:round;stroke-miterlimit:4;fill:none;fill-rule:evenodd;opacity:1"/><path d="M116.422 136.47c1.769.521 3.059 1.63 3.871 3.329.812 1.698 1.008 3.711.587 6.04-.475 2.629-1.54 4.6-3.195 5.916-1.655 1.316-3.635 1.766-5.938 1.35-2.303-.417-4.002-1.531-5.095-3.344-1.093-1.812-1.402-4.032-.927-6.66.416-2.297 1.276-4.103 2.583-5.418 1.306-1.315 2.817-1.915 4.531-1.8l-.71 3.933c-.926.08-1.678.442-2.257 1.084-.578.643-.974 1.555-1.188 2.736-.26 1.44-.054 2.652.62 3.634.673.983 1.727 1.604 3.16 1.863 1.428.258 2.627.046 3.598-.636.971-.682 1.588-1.747 1.85-3.194.225-1.252.145-2.307-.243-3.164-.388-.858-1.042-1.43-1.961-1.717l.714-3.951zm6.755-1.288-13.783-4.9 1.229-3.457 13.783 4.9-1.229 3.457zm-4.913-18.057 10.401 5.295-1.651 3.244-10.401-5.295-2.27 4.46-2.636-1.342 6.193-12.163 2.635 1.341-2.27 4.46zm15.81-3.368-4.983-3.758-10.543.052 2.805-3.72 6.375.236-2.004-6.032 2.793-3.704 2.778 10.246 4.983 3.758-2.204 2.922zm16.87-20.502c1.19-.854 1.883-1.864 2.08-3.032.197-1.168-.128-2.341-.973-3.52-.854-1.19-1.865-1.878-3.034-2.065-1.17-.188-2.35.145-3.538.998-1.19.854-1.885 1.867-2.085 3.042-.2 1.174.124 2.353.974 3.537.846 1.179 1.854 1.861 3.026 2.047 1.172.186 2.356-.15 3.55-1.007zm-9.855 1.313c-1.364-1.902-1.809-3.884-1.332-5.946.476-2.062 1.799-3.872 3.969-5.429 2.17-1.556 4.305-2.228 6.405-2.015 2.101.213 3.834 1.27 5.198 3.173 1.365 1.902 1.81 3.88 1.338 5.936-.473 2.056-1.794 3.862-3.964 5.419-2.17 1.556-4.307 2.231-6.41 2.025-2.105-.207-3.84-1.261-5.204-3.163zm20.904-5.274-5.84-13.412 11.436-4.98 1.18 2.712-8.07 3.514 1.125 2.585 7.39-3.218 1.181 2.711-7.39 3.218 2.353 5.405-3.365 1.465zm20.742-7.375-2.047-14.484 3.633-.514 1.617 11.439 7.453-1.054.43 3.046-11.086 1.567zm17.796-7.552 3.864.164-1.774-4.6-2.09 4.436zm-6.779 5.77 7.549-14.32 3.518.149 6.039 14.898-4.072-.173-1.202-3.15-6.433-.273-1.446 3.037-3.953-.168zm18.693-4.039 3.637.906-.033.134c-.2.8.001 1.497.6 2.091.6.594 1.572 1.059 2.915 1.393 1.037.258 1.875.305 2.513.141.64-.164 1.028-.524 1.166-1.08.116-.468.018-.857-.295-1.17-.313-.312-1.015-.665-2.106-1.059l-2.462-.878c-1.795-.65-3.046-1.406-3.752-2.268-.706-.862-.913-1.882-.62-3.06.347-1.394 1.255-2.374 2.724-2.94 1.47-.565 3.234-.591 5.295-.079 2.214.551 3.843 1.395 4.889 2.532 1.045 1.137 1.39 2.422 1.033 3.855l-.029.115-3.532-.879c.094-.73-.105-1.344-.597-1.84-.491-.496-1.277-.879-2.359-1.148-.998-.248-1.808-.299-2.429-.151-.621.148-.996.48-1.125 1-.104.415-.018.76.258 1.032.275.272 1.029.636 2.26 1.092l2.57.935c1.769.65 2.996 1.42 3.682 2.308.686.887.876 1.945.57 3.174-.393 1.58-1.333 2.622-2.82 3.125-1.488.503-3.467.447-5.937-.167-2.354-.586-4.058-1.469-5.11-2.648-1.052-1.18-1.379-2.568-.98-4.168l.074-.298zm26.299 14.71 2.042-15.82 3.464 2.07-1.764 11.17 9.05-6.818 3.438 2.055-13.03 9.256-3.2-1.912zm9.315 5.91 9.782-10.877 9.656 8.684-1.978 2.199-6.927-6.23-1.654 1.838 6.17 5.549-1.99 2.213-6.17-5.549-2.104 2.339 6.928 6.23-2.057 2.287-9.656-8.684zm20.333 20.26a6.87 6.87 0 0 1-2.622-1.072c-.79-.536-1.51-1.261-2.156-2.176a10.645 10.645 0 0 1-1.463-2.891c-.324-1.007-.464-1.982-.42-2.925.063-1.167.359-2.214.887-3.14.528-.927 1.306-1.753 2.335-2.48 1.911-1.352 3.896-1.782 5.955-1.291 2.059.49 3.859 1.826 5.4 4.007 1.302 1.841 1.976 3.666 2.023 5.474.047 1.808-.53 3.27-1.728 4.383l-2.301-3.255c.473-.746.673-1.523.599-2.33-.074-.808-.424-1.654-1.048-2.537-.845-1.195-1.854-1.897-3.027-2.105-1.173-.209-2.354.108-3.544.949-1.184.837-1.874 1.841-2.068 3.012-.193 1.17.134 2.356.983 3.557.578.818 1.261 1.413 2.05 1.785.787.372 1.587.48 2.398.327l-1.918-2.714 2.382-1.684 4.163 5.888-6.502 4.596-1.599-2.262 1.221-1.117zm8.958 7.89 1.482 3.572 3.42-3.55-4.902-.022zm-8.092-3.71 16.168.799 1.35 3.252-10.959 11.762-1.561-3.764 2.348-2.42-2.467-5.947-3.364-.029-1.515-3.654zM280.8 136.41l.707 3.682-.136.026c-.809.155-1.357.63-1.644 1.424-.288.794-.3 1.87-.039 3.23.202 1.05.511 1.83.928 2.34.417.51.908.712 1.471.603.473-.09.785-.344.937-.759.152-.415.177-1.2.075-2.356l-.238-2.603c-.165-1.902-.004-3.355.481-4.358.486-1.003 1.324-1.62 2.515-1.849 1.412-.271 2.683.141 3.814 1.236 1.13 1.096 1.896 2.686 2.297 4.77.43 2.241.35 4.075-.242 5.501-.592 1.427-1.613 2.28-3.064 2.558l-.116.023-.687-3.575c.702-.222 1.175-.66 1.419-1.315.243-.654.26-1.529.05-2.623-.195-1.01-.49-1.766-.885-2.267-.395-.502-.855-.702-1.38-.601-.42.08-.697.303-.828.668-.131.364-.145 1.2-.04 2.51l.231 2.725c.153 1.878-.03 3.315-.546 4.31-.517.996-1.397 1.614-2.64 1.853-1.6.307-2.94-.108-4.022-1.246-1.082-1.139-1.863-2.958-2.343-5.457-.458-2.383-.374-4.3.254-5.75.628-1.45 1.75-2.33 3.37-2.642l.3-.058zM145.856 239.121l7.227-12.718 3.912 2.223 1.26 12.58 5.095-8.97 3.062 1.74-7.226 12.719-3.87-2.199-1.27-12.7-5.146 9.055-3.044-1.73zm20.038 10.295 4.292-13.984 12.415 3.81-.868 2.827-8.906-2.733-.726 2.364 7.933 2.434-.873 2.846-7.933-2.434-.923 3.006 8.907 2.734-.903 2.94-12.415-3.81zm22.536 5.303-4.96-15.16 4.018.378 3.21 10.843 5.238-10.047 3.988.376-7.782 13.96-3.712-.35zm18.363-5.788 3.843-.436-2.465-4.27-1.377 4.706zm-5.804 6.75 5.241-15.316 3.499-.397L218 253.752l-4.049.46-1.676-2.926-6.397.725-.959 3.225-3.93.445zm21.528-15.452 2.853 8.17 2.68-.936c1.581-.552 2.661-1.318 3.24-2.3.58-.98.636-2.14.169-3.479-.468-1.338-1.232-2.21-2.291-2.615-1.06-.405-2.384-.33-3.971.224l-2.68.936zm1.636-3.683c1.494-.522 2.638-.843 3.43-.962a7.014 7.014 0 0 1 2.237-.001c1.215.198 2.28.72 3.197 1.565.917.847 1.615 1.954 2.093 3.324.477 1.363.62 2.661.428 3.894a6.118 6.118 0 0 1-1.524 3.225 6.92 6.92 0 0 1-1.752 1.387c-.696.397-1.792.856-3.286 1.378l-6.237 2.179-4.823-13.81 6.237-2.18zm19.402.511 3.288-2.037-4.054-2.805.766 4.842zm-2.36 8.584-1.812-16.086 2.993-1.855 13.372 8.923-3.464 2.146-2.765-1.928-5.474 3.392.513 3.324-3.363 2.084z" style="stroke:none;stroke-width:1;stroke-dasharray:none;stroke-linecap:butt;stroke-dashoffset:0;stroke-linejoin:miter;stroke-miterlimit:4;fill:silver;fill-rule:nonzero;opacity:1"/><path d="m186.588 94.892 7.69-8.927 9.015 12.993" style="stroke:#000;stroke-width:.758;stroke-dasharray:none;stroke-linecap:butt;stroke-dashoffset:0;stroke-linejoin:miter;stroke-miterlimit:4;fill:none;fill-rule:evenodd;opacity:1"/></g></svg>