<svg width="900" height="600" overflow="visible" viewBox="25 0 900 600" xml:space="preserve" xmlns="http://www.w3.org/2000/svg"><path fill="#000191" d="M25 0h900v600H25z"/><path fill="#be001c" d="M25 0h900v300H25z"/><path fill="#fff" d="M25 291.45h900v17.1H25z"/><path transform="matrix(2.72872 0 0 2.7178 -1850.083 -1583.786)" d="m852.078 599.966 22.34 72.25 75.618-1.08-61.811 43.573 24.395 71.584-60.542-45.322-60.541 45.322 24.395-71.584-61.812-43.573 75.619 1.08z" fill="#fff" fill-rule="evenodd" style="paint-order:stroke markers fill"/><g transform="matrix(1.81968 0 0 1.81968 20.081 25.933)"><circle transform="matrix(1.12176 0 0 1.12176 -29.879 -20.042)" cx="249.5" cy="163.83" r="48.5" fill="#d5a735"/><circle transform="matrix(1.12176 0 0 1.12176 -29.879 -20.042)" cx="249.5" cy="164.15" r="45.013" fill="none" stroke="#000" stroke-width=".951"/><path d="M251.019 129.187c-.42-.012-.709-.354-.698-.798.014-.445.33-.77.763-.758.432.012.72.34.709.798-.016.446-.321.77-.763.759zM253.555 129.35c-.42-.043-.682-.405-.638-.848.045-.442.385-.743.816-.7.43.043.696.392.65.846-.045.443-.373.746-.817.702zM256.08 129.707c-.416-.072-.652-.452-.572-.89.074-.439.438-.715.866-.64.425.075.662.444.581.895-.074.439-.427.716-.866.64zM258.572 130.249c-.408-.103-.612-.5-.504-.93.11-.431.49-.68.911-.573.42.106.628.49.516.934-.107.431-.478.683-.91.574zM261 130.964c-.4-.134-.576-.543-.435-.966.142-.422.538-.641.95-.505.412.138.59.537.448.97-.141.423-.53.645-.952.505zM263.394 131.863c-.388-.162-.533-.584-.36-.995.17-.41.583-.6.983-.432.401.168.55.58.372 1-.172.41-.574.605-.985.431zM265.702 132.947c-.376-.191-.487-.622-.287-1.019.203-.397.629-.554 1.015-.359.386.195.505.617.297 1.025-.202.397-.62.56-1.014.36zM267.935 134.193c-.36-.218-.441-.658-.208-1.038.23-.382.666-.506 1.037-.283.37.225.457.654.22 1.045-.23.382-.657.514-1.037.281zM270.059 135.59c-.342-.243-.39-.687-.134-1.053.258-.363.705-.455 1.058-.205.352.252.408.686.143 1.058-.26.363-.694.463-1.058.205zM272.074 137.15c-.324-.268-.34-.713-.056-1.057.285-.343.736-.403 1.067-.127.334.277.358.713.065 1.066-.283.343-.725.411-1.067.127zM273.97 138.841c-.304-.29-.287-.737.022-1.058.31-.322.762-.348 1.076-.048.313.3.304.738-.014 1.067-.308.322-.752.358-1.075.049zM275.748 140.683c-.28-.314-.233-.756.1-1.054.331-.298.788-.292 1.077.03.29.322.248.757-.093 1.064-.331.297-.778.3-1.075-.031zM277.373 142.644c-.258-.331-.175-.771.175-1.043.354-.273.807-.233 1.072.11.264.342.194.773-.169 1.054-.352.273-.797.242-1.07-.11zM278.847 144.714c-.233-.35-.118-.783.252-1.028.37-.246.82-.174 1.06.187s.134.786-.246 1.038c-.37.247-.814.183-1.06-.186zM280.18 146.892c-.205-.365-.062-.79.327-1.007.388-.219.833-.113 1.044.264.212.379.078.794-.322 1.018-.388.219-.826.123-1.045-.266zM281.34 149.178c-.177-.381 0-.791.404-.98.403-.188.837-.05 1.018.342.184.392.02.797-.396.99-.406.19-.833.063-1.02-.341zM282.336 151.53c-.15-.393.058-.79.474-.948.417-.158.837.012.992.416.153.406-.04.796-.469.96-.416.157-.834 0-.992-.418zM283.138 153.935c-.119-.403.115-.784.542-.91.427-.126.835.073.96.49.123.414-.103.79-.538.922-.427.127-.834-.063-.96-.49zM283.767 156.394c-.09-.41.17-.772.608-.866.435-.096.829.135.92.559.092.422-.157.78-.605.878-.435.098-.826-.122-.921-.558zM284.222 158.919c-.06-.415.23-.756.67-.82.44-.062.814.198.876.626.062.427-.215.767-.667.832-.441.063-.813-.185-.877-.626zM284.471 161.454c-.027-.419.285-.739.728-.767.447-.029.798.255.828.687s-.272.751-.726.782c-.445.029-.795-.244-.828-.689zM284.547 164c.008-.42.343-.709.792-.705.445.008.773.324.766.755-.008.432-.334.723-.79.715-.446-.008-.776-.31-.768-.752zM284.439 166.547c.031-.418.388-.688.834-.654.443.033.75.368.717.8-.032.43-.378.703-.833.665-.446-.035-.755-.36-.72-.8zM284.135 169.072c.066-.415.44-.66.881-.592.439.067.723.423.658.852-.067.427-.43.67-.881.603-.438-.067-.725-.41-.658-.85zM283.658 171.586c.095-.409.485-.625.92-.525.436.099.692.476.594.897-.1.423-.477.64-.923.536-.432-.1-.693-.462-.594-.898zM282.986 174.034c.124-.402.531-.585.957-.454.425.13.654.525.526.938-.13.414-.525.603-.961.467-.426-.13-.657-.514-.527-.939zM282.141 176.429c.153-.392.575-.545.986-.384.414.162.615.572.454.974-.158.404-.564.563-.991.395-.414-.162-.617-.562-.452-.975zM281.112 178.78c.183-.378.61-.5 1.01-.307.405.193.57.616.381 1.006-.19.39-.606.52-1.017.32-.401-.193-.574-.606-.38-1.007zM279.92 181.023c.208-.365.646-.455 1.031-.233.387.222.522.656.306 1.03-.217.376-.644.474-1.04.243-.384-.222-.528-.645-.305-1.031zM278.554 183.18c.237-.347.679-.407 1.048-.157.368.25.472.696.229 1.054-.242.36-.674.424-1.055.165-.368-.249-.477-.682-.228-1.052zM277.048 185.227c.26-.33.707-.355 1.056-.078.345.278.419.726.15 1.063-.267.34-.705.373-1.063.09-.348-.277-.426-.716-.15-1.065zM275.38 187.167c.283-.309.73-.301 1.06 0 .326.301.364.755.068 1.074-.292.318-.73.318-1.066.01-.327-.3-.372-.746-.07-1.073zM273.591 188.976c.306-.287.751-.248 1.057.076.304.325.308.78-.009 1.075-.315.297-.75.267-1.064-.068-.305-.322-.318-.772.008-1.076zM271.673 190.634c.326-.265.766-.193 1.047.154.28.346.25.799-.086 1.073-.336.272-.769.208-1.056-.149-.28-.344-.261-.793.084-1.071zM269.636 192.162c.345-.238.78-.136 1.033.23.254.366.194.817-.163 1.064-.355.246-.782.152-1.045-.225-.253-.365-.201-.807.164-1.06zM267.48 193.538c.361-.215.788-.078 1.014.304.225.384.13.83-.243 1.05-.372.221-.791.096-1.023-.299-.228-.382-.142-.82.242-1.048zM265.236 194.752c.376-.189.791-.021.989.381.196.398.068.835-.32 1.026-.388.193-.797.034-1.002-.375-.196-.4-.08-.832.322-1.026zM262.906 195.792c.388-.158.79.038.958.45s.007.838-.395 1.003c-.4.162-.796-.023-.969-.449-.167-.413-.018-.834.395-1.001zM260.49 196.659c.402-.128.787.1.923.522.136.424-.057.836-.468.969s-.795-.083-.932-.52c-.136-.422.045-.833.467-.967zM258.052 197.33c.407-.098.777.156.88.589s-.117.83-.538.93c-.42.101-.786-.142-.89-.585-.106-.432.106-.827.536-.93zM255.548 197.84c.416-.068.762.212.836.652.07.442-.18.821-.607.89-.429.068-.774-.2-.845-.653-.073-.439.167-.817.606-.887zM253.013 198.154c.42-.037.744.269.784.712.038.442-.237.802-.668.84-.43.037-.755-.256-.794-.71-.04-.444.227-.802.668-.841zM250.466 198.284c.422-.007.723.324.73.766.008.446-.295.786-.729.791-.432.008-.733-.309-.742-.766-.008-.445.284-.785.73-.791zM247.909 198.219c.42.023.698.374.672.82-.024.444-.353.758-.786.734-.431-.023-.71-.363-.684-.82.024-.444.34-.759.785-.736zM245.406 197.98c.417.055.667.424.61.866-.058.441-.408.733-.837.675-.43-.055-.682-.411-.622-.865.057-.444.394-.735.837-.677zM242.87 197.547c.41.085.635.471.544.908-.09.435-.46.7-.884.612-.424-.089-.65-.462-.557-.91.09-.438.448-.704.884-.614zM240.4 196.94c.403.113.597.518.474.946-.123.427-.512.664-.928.544-.416-.119-.613-.51-.488-.95.123-.428.5-.666.927-.544zM237.983 196.139c.394.146.558.56.404.977-.154.42-.558.624-.966.476-.406-.151-.573-.554-.415-.983.154-.418.546-.63.966-.475zM235.631 195.163c.384.175.516.602.33 1.007-.184.407-.603.582-.999.403-.393-.179-.53-.595-.341-1.009.184-.407.592-.586.998-.404zM233.355 194.026c.369.201.47.636.256 1.026s-.645.535-1.024.326c-.38-.205-.487-.63-.265-1.034.214-.39.633-.54 1.025-.325zM231.166 192.715c.353.227.42.668.178 1.043-.242.374-.683.488-1.047.25-.363-.237-.436-.665-.187-1.05.241-.375.672-.495 1.046-.251zM229.086 191.24c.336.254.37.7.102 1.055-.27.353-.718.435-1.062.172-.344-.26-.387-.698-.112-1.06.27-.357.707-.442 1.06-.174zM227.114 189.637c.316.279.318.723.023 1.058-.293.335-.745.38-1.071.094-.327-.285-.336-.72-.035-1.065.295-.334.738-.388 1.072-.095zM225.26 187.86c.295.3.264.746-.054 1.058s-.772.325-1.076.016c-.303-.308-.282-.745.046-1.065.318-.312.764-.334 1.076-.016zM223.537 185.964c.271.322.207.763-.132 1.051-.339.287-.794.268-1.074-.065-.28-.33-.225-.764.124-1.06.34-.287.787-.277 1.074.067zM221.977 183.96c.247.339.152.778-.208 1.039-.36.26-.813.207-1.067-.143s-.17-.78.201-1.05c.361-.26.804-.216 1.066.143zM220.557 181.847c.223.357.094.787-.285 1.02-.378.234-.824.148-1.052-.222-.228-.366-.111-.79.278-1.03.378-.235.818-.157 1.053.22zM219.311 179.647c.195.373.036.79-.358.997-.395.205-.835.086-1.034-.297-.2-.384-.053-.793.352-1.008.394-.207.828-.1 1.034.296zM218.206 177.317c.167.386-.023.791-.43.967-.409.177-.838.024-1.01-.373-.171-.396.007-.795.428-.977.407-.177.832-.034 1.009.373zM217.296 174.955c.136.398-.082.788-.502.932-.42.145-.838-.036-.98-.446-.142-.409.065-.796.498-.945.42-.146.834.024.98.447zM216.559 172.517c.107.407-.139.78-.57.893-.43.112-.832-.102-.943-.519s.125-.789.567-.903c.429-.113.829.086.943.517zM216.006 170.025c.077.414-.197.766-.635.849-.438.08-.822-.16-.901-.587s.182-.775.631-.859c.438-.081.82.15.902.584zM215.638 167.511c.045.419-.253.75-.696.798-.443.05-.808-.221-.856-.652-.048-.43.238-.76.693-.81.443-.05.808.208.858.651zM215.453 164.954c.017.42-.306.728-.752.746-.445.018-.79-.279-.806-.711-.015-.432.295-.742.751-.756.446-.019.79.267.806.71zM215.453 162.419c-.014.421-.358.706-.804.69s-.767-.336-.752-.768.346-.718.803-.702c.446.016.77.321.752.768v.012zM215.649 159.872c-.046.419-.409.677-.853.63-.444-.05-.742-.391-.695-.822.047-.43.399-.692.854-.643.442.05.742.381.695.824zM216.017 157.348c-.076.413-.458.645-.896.564s-.71-.445-.632-.872c.078-.425.45-.659.898-.575.44.08.712.432.632.87zM216.58 154.856c-.107.408-.505.609-.936.495-.43-.113-.675-.496-.564-.916.11-.419.495-.624.938-.508.43.113.678.484.566.916zM217.328 152.418c-.135.397-.548.57-.97.426-.421-.148-.636-.547-.495-.958.141-.408.54-.584.973-.436.422.145.64.535.497.957zM218.238 150.056c-.165.385-.59.527-.999.352-.408-.175-.594-.59-.424-.988.17-.398.583-.544 1.003-.363.409.174.6.58.425.987zM219.344 147.737c-.194.374-.627.482-1.022.277-.397-.205-.55-.634-.35-1.017.2-.385.622-.499 1.028-.288.395.204.555.622.35 1.016zM220.612 145.516c-.221.357-.661.434-1.04.2-.379-.234-.5-.673-.273-1.04.228-.367.658-.452 1.046-.211.38.234.507.663.273 1.04zM222.042 143.403c-.247.34-.69.383-1.052.123-.361-.26-.45-.707-.195-1.057s.688-.402 1.058-.135c.361.26.457.698.197 1.059zM223.613 141.409c-.27.32-.717.333-1.057.046-.342-.287-.397-.738-.118-1.07.28-.33.717-.351 1.066-.055.34.286.405.729.117 1.07zM225.315 139.534c-.294.302-.74.28-1.06-.03s-.34-.766-.038-1.076c.302-.309.74-.297 1.067.022.319.312.35.756.04 1.075zM227.168 137.78c-.316.278-.759.225-1.054-.11-.293-.333-.284-.787.04-1.074.326-.286.76-.243 1.064.1.293.333.293.78-.04 1.074zM229.15 136.165c-.334.254-.772.169-1.042-.186-.268-.354-.225-.807.118-1.069.345-.261.775-.185 1.053.179.27.354.236.8-.12 1.07zM231.231 134.702c-.352.23-.783.112-1.026-.261-.241-.374-.166-.822.197-1.058.362-.236.786-.129 1.036.256.243.373.177.815-.197 1.057zM233.431 133.39c-.367.205-.789.054-1.003-.336-.215-.39-.105-.832.273-1.04.38-.208.794-.07 1.015.331.215.39.115.826-.275 1.04zM235.696 132.253c-.382.176-.791-.004-.976-.41s-.044-.836.35-1.016.796-.012.987.405c.185.406.054.833-.351 1.018zM238.058 131.289c-.394.146-.789-.064-.943-.481s.019-.838.425-.989.796.048.955.477c.155.417-.007.835-.425.988zM240.486 130.498c-.404.117-.782-.123-.904-.55-.124-.429.081-.835.496-.954.416-.12.79.107.917.546.124.428-.068.831-.496.955zM242.946 129.891c-.412.087-.77-.18-.862-.615-.092-.436.143-.826.566-.916.424-.089.78.165.874.613.091.436-.132.824-.566.916zM245.481 129.468c-.416.056-.754-.236-.812-.678-.059-.44.203-.813.632-.869.43-.057.767.222.826.676.059.441-.192.813-.633.87zM248.017 129.23c-.42.025-.736-.291-.762-.736s.263-.795.695-.821c.431-.025.747.28.775.735.025.444-.25.794-.696.821zM290.44 179.13a43.178 43.178 0 0 1-6.196 11.175h1.474a44.108 44.108 0 0 0 5.983-11.175h-1.261zm-82.141 0a44.274 44.274 0 0 0 5.982 11.175h1.475a43.111 43.111 0 0 1-6.195-11.175h-1.262z"/><g><path d="m202.595 159.35-.967-.498.019-.5 3.98-.014-.023.617c-1.153.148-2.018.477-2.593.988-.577.51-.878 1.106-.904 1.79-.028.752.304 1.386 1 1.906.695.519 1.814.81 3.354.866 1.631.065 2.85-.159 3.663-.67.638-.41.973-1.038 1.006-1.883a2.8 2.8 0 0 0-.848-2.17c-.434-.431-1.088-.749-1.96-.95l.022-.6c1.121.187 1.997.652 2.624 1.398s.92 1.645.881 2.692c-.053 1.357-.577 2.478-1.57 3.359-.993.88-2.238 1.294-3.734 1.235-1.66-.065-2.966-.644-3.916-1.743-.808-.936-1.19-2.01-1.143-3.22a3.83 3.83 0 0 1 .278-1.323c.166-.4.447-.826.83-1.28zM202.628 154.504l1.292-4.91.6.158-.233.888c-.05.191-.047.34.005.445.054.107.153.18.3.217l7.432 1.955c.173.046.309.033.406-.038.126-.092.218-.248.276-.466l.209-.791.6.156-1.291 4.91-.602-.156.199-.752c.068-.258.074-.452.015-.582-.059-.129-.172-.214-.341-.26l-7.348-1.935c-.182-.049-.329-.032-.44.04-.113.073-.197.215-.25.423l-.225.857zM204.905 146.45l3.903-7.735 3.467 1.499-.273.541c-.785-.234-1.43-.353-1.935-.353-.507 0-.912.088-1.214.264a1.723 1.723 0 0 0-.689.73c-.09.18-.119.33-.089.45.03.122.117.219.257.29l6.854 3.458c.133.067.26.08.385.04a.448.448 0 0 0 .276-.232l.508-1.005.558.28-2.389 4.735-.557-.281.483-.958a.521.521 0 0 0 .049-.403.483.483 0 0 0-.264-.29l-6.818-3.441c-.16-.08-.298-.097-.418-.048-.12.047-.226.163-.319.346-.514 1.019.07 2.179 1.757 3.48l-.265.525zM210.514 136.073l3.277-3.691.468.413-.455.512c-.16.18-.247.325-.264.435-.017.111.01.199.085.264a.797.797 0 0 0 .367.164l4.03.81-1.189-3.002a1.456 1.456 0 0 0-.371-.574.651.651 0 0 0-.553-.175c-.201.033-.408.168-.62.405l-.203.228-.467-.414 2.544-2.867.468.414c-.288.336-.457.66-.51.973s-.002.661.15 1.048l1.622 4.104 2.332 2.07c.138.12.272.174.407.159.133-.016.27-.105.414-.265l.682-.767.468.414-3.601 4.058-.468-.414.676-.763c.155-.172.23-.325.228-.452-.003-.128-.075-.254-.215-.378l-2.07-1.837-5.214-1.048c-.333-.068-.602-.067-.809.003s-.403.214-.594.429l-.141.16zM228.16 120.986c.834-.421 1.706-.605 2.614-.557s1.733.324 2.477.822c.744.5 1.335 1.187 1.776 2.061.668 1.33.79 2.656.368 3.98s-1.278 2.309-2.565 2.955c-.855.43-1.723.612-2.602.55a4.953 4.953 0 0 1-2.424-.826c-.735-.488-1.332-1.186-1.787-2.092-.677-1.345-.804-2.671-.385-3.978.419-1.306 1.261-2.278 2.527-2.915zm.324.556c-.476.239-.823.578-1.041 1.015-.218.438-.283 1-.196 1.686s.385 1.536.896 2.551c.535 1.067 1.036 1.826 1.502 2.28.466.454.948.72 1.443.802.497.08.986 0 1.471-.244.715-.359 1.132-.953 1.252-1.781.119-.828-.202-2-.965-3.518-.534-1.062-1.026-1.814-1.478-2.255s-.927-.7-1.422-.778a2.357 2.357 0 0 0-1.462.242zM236.775 117.688l8.608-1.616.73 3.34-.592.112c-.3-1.014-.678-1.685-1.132-2.01-.455-.326-1.078-.414-1.871-.266l-1.446.271c-.21.04-.356.113-.437.22a.491.491 0 0 0-.076.4l.612 3.262.527-.1c1.048-.195 1.537-.934 1.464-2.215l.584-.11.845 4.501-.584.11c-.11-.48-.26-.845-.451-1.098a1.647 1.647 0 0 0-.706-.545 1.583 1.583 0 0 0-.902-.076l-.665.126.667 3.552c.035.19.113.318.23.388.169.1.353.132.551.093l.926-.174.115.616-5.167.969-.115-.616.866-.163c.203-.038.349-.12.44-.249a.555.555 0 0 0 .088-.436l-1.397-7.444c-.035-.19-.114-.31-.236-.366-.123-.053-.35-.049-.685.014l-.674.127zM254.195 115.96l5.241 1.025c.954.188 1.75.553 2.389 1.097.64.545 1.089 1.23 1.356 2.056.261.825.301 1.706.118 2.64-.192.97-.542 1.777-1.054 2.422-.514.644-1.183 1.107-2.009 1.388a4.8 4.8 0 0 1-2.513.17l-5.431-1.062.118-.608.81.158c.2.038.357.013.48-.074.12-.088.2-.229.24-.42l1.437-7.34c.038-.197.013-.35-.074-.461-.087-.111-.257-.19-.506-.24l-.718-.14zm3.002 10.063c.602.117 1.164.071 1.689-.14s.94-.562 1.25-1.046.571-1.28.787-2.383c.226-1.16.279-2.073.156-2.738s-.367-1.17-.733-1.512-.953-.595-1.759-.752c-.442-.086-.728-.103-.855-.05-.125.052-.208.178-.248.375l-1.442 7.377c-.044.22-.028.387.041.501s.206.191.402.23zM272.738 121.457l-.812 9.613c-.021.273.003.477.07.615s.197.255.379.349l.32.166-.287.55-4.123-2.149.286-.55.387.2c.304.16.532.235.682.228.151-.008.256-.068.312-.178a.933.933 0 0 0 .087-.341l.17-1.99-3.298-1.718-.703.581c-.291.243-.476.439-.555.59a.88.88 0 0 0-.041.778c.106.26.324.476.654.648l.28.146-.287.55-3.342-1.741.287-.551.191.1a.982.982 0 0 0 .673.092c.332-.071.637-.222.918-.455l7.085-5.883zm-2.119 1.725-3.155 2.616 2.807 1.463zM279.042 126.303l.423-.46 3.751 3.456-.421.459-.632-.581c-.18-.166-.338-.247-.473-.246-.136.002-.274.082-.419.236l-4.996 5.424c-.202.22-.297.393-.285.518s.15.306.406.542l1.056.973c.392.361.929.514 1.613.455s1.49-.412 2.424-1.062l.434.4-2.746 2.646-6.431-5.928.423-.458.647.597c.144.133.286.196.423.191.14-.004.272-.072.393-.204l5.136-5.577c.124-.135.177-.267.158-.397s-.119-.28-.303-.447zM287.826 135.019l.525-.336 2.741 4.292-.525.336-.462-.724c-.133-.207-.265-.327-.398-.359-.13-.031-.287.007-.464.12l-6.218 3.973c-.252.162-.387.304-.408.428-.02.123.068.332.25.626l.772 1.202c.289.448.767.73 1.442.845.675.114 1.545-.022 2.612-.414l.328.51-3.332 1.858-4.696-7.35.525-.336.466.733c.104.162.223.257.36.289.136.029.28-.004.429-.101l6.393-4.085c.157-.1.24-.212.254-.342.016-.129-.043-.297-.175-.504zM296.44 150.207l-7.383 6.213c-.207.175-.333.336-.382.483-.048.147-.04.318.02.514l.111.345-.591.186-1.39-4.443.592-.185.13.416c.103.33.21.543.321.644.114.102.226.134.347.097a.888.888 0 0 0 .3-.18l1.525-1.277-1.107-3.543-.905-.085c-.378-.037-.645-.03-.81.021a.879.879 0 0 0-.579.518c-.109.258-.108.567.004.921l.094.303-.592.184-1.125-3.6.591-.185.067.206a.97.97 0 0 0 .41.544c.283.185.604.297.966.334l9.165.851zm-2.718-.28-4.085-.385.944 3.021zM297.574 164.297l.915.58.023.476-3.422.221-.027-.6c.967-.36 1.682-.84 2.145-1.439.462-.601.678-1.25.643-1.948-.026-.596-.21-1.07-.553-1.428-.341-.357-.736-.527-1.187-.506-.266.013-.51.098-.725.255-.213.157-.394.405-.537.74-.143.336-.281.918-.41 1.752-.155.968-.303 1.64-.448 2.016-.231.593-.554 1.044-.965 1.357-.41.31-.923.479-1.532.51-.915.042-1.663-.237-2.237-.842-.69-.727-1.066-1.652-1.118-2.773-.05-1.032.264-1.992.942-2.879l-1.012-.735-.023-.5 3.667-.176.028.593c-2.062.685-3.05 1.925-2.965 3.715.035.732.23 1.293.585 1.685.356.39.786.574 1.29.55.352-.019.644-.12.873-.31.23-.192.41-.475.539-.86.07-.21.172-.724.307-1.545.19-1.106.4-1.897.635-2.377s.532-.836.894-1.075c.363-.238.812-.367 1.347-.393.901-.042 1.65.226 2.245.805.599.579.92 1.378.97 2.398.045.975-.25 1.887-.887 2.733z"/></g><g><path d="m227.924 196.693 7.117 3.823-1.478 3.19-.5-.268c.236-.722.36-1.319.373-1.79s-.06-.848-.217-1.134a1.595 1.595 0 0 0-.666-.659c-.165-.088-.304-.117-.417-.093-.114.025-.205.106-.274.234l-3.384 6.297c-.065.12-.08.242-.047.358s.103.204.21.262l.925.496-.274.508-4.35-2.335.273-.51.88.473a.507.507 0 0 0 .375.056.45.45 0 0 0 .276-.24l3.368-6.265c.078-.15.096-.277.054-.39-.041-.11-.146-.212-.315-.303-.936-.505-2.03.012-3.28 1.545l-.484-.26zM236.158 200.99l7.825 1.895-.587 3.184-.533-.13c.053-.772.025-1.343-.084-1.712a1.91 1.91 0 0 0-.563-.912c-.267-.237-.648-.415-1.143-.534l-1.227-.299c-.19-.045-.338-.04-.44.014a.411.411 0 0 0-.205.283l-.753 3.108.42.102c.481.116.887.07 1.22-.142.331-.211.596-.615.792-1.215l.551.132-1.014 4.184-.55-.133c.131-.701.097-1.227-.1-1.578-.2-.348-.567-.587-1.105-.72l-.345-.083-.805 3.323c-.035.147-.018.26.051.341.108.121.284.211.527.27l1.082.26c.74.18 1.402.09 1.986-.269.585-.357 1.05-1.002 1.395-1.929l.55.134-.96 3.385-8.16-1.979.139-.565.807.197c.183.044.332.03.449-.039a.513.513 0 0 0 .234-.342l1.674-6.909c.036-.147.015-.265-.065-.356-.079-.092-.241-.168-.49-.23l-.71-.17zM244.952 203.177l4.576-.074.009.584-.338.006c-.308.005-.513.035-.61.09-.101.057-.148.13-.147.222.001.11.09.282.264.513l1.57 2.08 1.19-1.488c.262-.325.39-.63.384-.918a.506.506 0 0 0-.17-.4c-.114-.091-.275-.135-.487-.133l-.289.007-.012-.584 3.642-.061.01.584-.275.005c-.228.004-.43.056-.604.154-.175.1-.376.283-.595.55l-2.339 2.865 3.127 4.03c.148.196.282.325.404.383a.81.81 0 0 0 .42.09l.303-.004.01.584-4.51.072-.01-.584.473-.009c.223-.003.384-.042.483-.116a.33.33 0 0 0 .147-.282c-.002-.095-.07-.216-.205-.364l-.066-.083-1.753-2.303-1.412 1.775c-.191.246-.287.504-.281.774.003.204.06.355.168.455a.748.748 0 0 0 .517.185l.351-.007.01.585-3.808.062-.01-.584.238-.003c.192-.004.392-.068.602-.192.347-.213.615-.44.802-.678l2.374-2.938-2.97-3.804c-.158-.2-.291-.328-.4-.384a.872.872 0 0 0-.426-.081l-.35.003zM259.905 201.416l5.54 7.078c.156.199.303.323.44.372a.78.78 0 0 0 .478-.003l.329-.09.154.559-4.184 1.15-.153-.556.39-.11c.309-.084.512-.177.61-.277.098-.103.13-.208.101-.321a.856.856 0 0 0-.156-.289l-1.143-1.463-3.335.918-.11.84c-.047.351-.049.602-.009.754.072.261.23.448.467.558s.525.116.858.025l.284-.078.156.556-3.383.932-.157-.556.194-.054a.913.913 0 0 0 .516-.362c.182-.257.294-.557.339-.893l1.098-8.512zm-.35 2.525-.492 3.788 2.839-.782zM270.439 197.736l.097-1.005.383-.217 1.627 2.746-.491.278c-.707-.65-1.407-1.042-2.1-1.172-.69-.132-1.32-.036-1.888.285-.481.274-.799.63-.952 1.064-.155.434-.126.834.083 1.2.122.216.296.383.518.495.221.113.504.16.842.136.34-.023.881-.155 1.624-.394.869-.277 1.49-.435 1.863-.473.594-.06 1.104.019 1.536.227.431.211.79.565 1.073 1.06.423.739.503 1.479.244 2.21-.315.882-.925 1.582-1.837 2.1-.837.476-1.765.62-2.79.428l-.185 1.154-.4.227-1.694-2.973.474-.273c1.443 1.434 2.89 1.733 4.34.91.594-.336.976-.736 1.15-1.197.173-.462.146-.896-.088-1.306-.163-.287-.373-.485-.628-.597-.254-.112-.566-.142-.94-.088-.204.03-.677.162-1.414.395-.998.307-1.745.468-2.243.473-.496.007-.92-.088-1.27-.29-.35-.201-.645-.519-.895-.955-.418-.731-.512-1.467-.282-2.209.229-.739.756-1.346 1.583-1.817.805-.452 1.688-.593 2.66-.422z"/></g><g fill="none" stroke="#000" stroke-width=".475"><path stroke-width=".96961107" d="M256.984 154.523 250 133.214l-6.984 21.31h-22.665l18.28 13.356-7.157 21.85L250 176.19l18.536 13.54-7.168-21.85 18.281-13.357z"/><path d="m255.801 166.442-.02-.05 9.737-7.117.051-.041h-12.133l-.01-.03-3.752-11.44-3.722 11.47H233.82l9.788 7.157-.05.143-3.742 11.42-.041.132 9.9-7.229.02-.02 9.92 7.249z" stroke-width=".48429575"/><path d="m233.779 159.193.142.04 15.681 5.13.051.01M265.559 159.264l-.041.01-15.63 5.088-.163.051M239.743 178.055l.072-.102 9.767-13.346.04-.061.052-.072.03-.04.02-.02M249.674 147.764V164.464" stroke-width=".48429575"/><path d="m259.615 178.086-9.778-13.479-.061-.082-.072-.091-.02-.02M245.891 159.163l.051.07 3.66 5.13.072.091" stroke-width=".48429575"/><path d="m253.446 159.163-.02.04-3.538 5.16-.112.162-.041.051M243.556 166.534l5.985-1.958" stroke-width=".48429575"/><path d="m249.541 164.515.082.03.05.011.062.02.102.031 5.883 1.866M249.674 170.877v-6.3" stroke-width=".48429575"/></g></g></svg>