<svg xmlns="http://www.w3.org/2000/svg" version="1.0" width="408.248" height="244.949" viewBox="0 0 0.601 0.504" xml:space="preserve" style="fill-rule:evenodd"><path style="fill:#603;fill-opacity:1;stroke:none;stroke-width:3;stroke-linecap:square;stroke-linejoin:miter;stroke-miterlimit:4;stroke-dasharray:none;stroke-dashoffset:0;stroke-opacity:1" d="M-.12 0h.841v.504H-.12z"/><path d="M.331.113C.41.128.446.18.446.253a.151.151 0 0 1-.145.145A.145.145 0 0 1 .22.374a.134.134 0 0 0 .14-.02A.134.134 0 0 1 .158.28.146.146 0 0 1 .161.21a.12.12 0 0 0 .061.095C.218.302.23.312.211.295.192.28.163.22.175.18a.039.039 0 0 1 .014-.02C.178.193.19.228.228.245A.106.106 0 0 0 .25.253.032.032 0 1 0 .23.203c0-.022.019-.04.042-.04.014-.052.07.022.097.022C.366.187.365.188.36.192.355.195.358.218.36.238S.351.264.347.278C.407.243.403.18.353.137c.035.015.05.047.061.084C.415.179.404.152.346.12L.331.113zM.29.163l.016.005L.294.156S.29.156.29.158v.004zM.267.112C.257.12.218.143.213.182.21.211.234.237.264.247A.067.067 0 0 1 .197.181c0-.037.037-.067.07-.067z" style="fill:#fff"/></svg>